<svg xmlns="http://www.w3.org/2000/svg" xmlns:xlink="http://www.w3.org/1999/xlink" width="444" height="360" viewBox="0 0 444 360">
  <defs>
    <clipPath id="clip-path">
      <rect id="Retângulo_34" data-name="Retângulo 34" width="444" height="360" fill="#fff"/>
    </clipPath>
  </defs>
  <g id="Grupo_9" data-name="Grupo 9" clip-path="url(#clip-path)">
    <path id="Caminho_1" data-name="Caminho 1" d="M114.071,149.438A40.364,40.364,0,1,0,73.8,109.074,40.315,40.315,0,0,0,114.071,149.438Z" fill="#ff6b35"/>
    <path id="Caminho_2" data-name="Caminho 2" d="M444,96.59V202.754A156.394,156.394,0,0,1,287.689,359.442H0V253.279A156.671,156.671,0,0,1,75.125,119.358a154.994,154.994,0,0,1,24.4-12.1,153.282,153.282,0,0,1,15.229-5.061c.1-.034.206-.063.306-.087q2.288-.627,4.6-1.182c.087-.024.168-.043.255-.063a156.038,156.038,0,0,1,28.994-4.1c1.155-.053,2.311-.1,3.476-.12.417-.014.839-.024,1.266-.024q1.323-.029,2.661-.029Z" fill="#3f3d56"/>
    <path id="Caminho_3" data-name="Caminho 3" d="M207.136,291.028C92.978,291.028.393,321.886,0,360H414.268C413.879,321.886,321.294,291.028,207.136,291.028Z" fill="#f2f2f2"/>
    <g id="Grupo_3" data-name="Grupo 3" opacity="0.1">
      <path id="Caminho_4" data-name="Caminho 4" d="M168.778,343.284c21.184,0,38.358-4.782,38.358-10.681s-17.174-10.68-38.358-10.68-38.359,4.782-38.359,10.68S147.593,343.284,168.778,343.284Z" opacity="0.1"/>
    </g>
    <g id="Grupo_4" data-name="Grupo 4" opacity="0.1">
      <path id="Caminho_5" data-name="Caminho 5" d="M251.728,324.059c21.185,0,38.358-4.782,38.358-10.681S272.913,302.7,251.728,302.7s-38.359,4.782-38.359,10.681S230.543,324.059,251.728,324.059Z" opacity="0.1"/>
    </g>
    <g id="Grupo_5" data-name="Grupo 5" opacity="0.1">
      <path id="Caminho_6" data-name="Caminho 6" d="M168.778,342.216c19.066,0,34.522-4.3,34.522-9.613s-15.456-9.612-34.522-9.612-34.523,4.3-34.523,9.612S149.711,342.216,168.778,342.216Z" opacity="0.1"/>
    </g>
    <g id="Grupo_6" data-name="Grupo 6" opacity="0.1">
      <path id="Caminho_7" data-name="Caminho 7" d="M251.728,322.991c19.066,0,34.523-4.3,34.523-9.613s-15.457-9.613-34.523-9.613-34.523,4.3-34.523,9.613S232.662,322.991,251.728,322.991Z" opacity="0.1"/>
    </g>
    <path id="Caminho_8" data-name="Caminho 8" d="M66.169,142.75a3.365,3.365,0,1,0-3.356-3.364A3.36,3.36,0,0,0,66.169,142.75Z" fill="#f2f2f2"/>
    <path id="Caminho_9" data-name="Caminho 9" d="M354.816,274.446a3.365,3.365,0,1,0-3.356-3.365A3.361,3.361,0,0,0,354.816,274.446Z" fill="#f2f2f2"/>
    <path id="Caminho_10" data-name="Caminho 10" d="M196.587,166.3a3.365,3.365,0,1,0-3.356-3.365A3.361,3.361,0,0,0,196.587,166.3Z" fill="#f2f2f2"/>
    <path id="Caminho_11" data-name="Caminho 11" d="M362.968,144.673a1.923,1.923,0,1,0-1.918-1.923A1.921,1.921,0,0,0,362.968,144.673Z" fill="#ff6b35"/>
    <path id="Caminho_12" data-name="Caminho 12" d="M73.84,240.8a1.923,1.923,0,1,0-1.918-1.922A1.92,1.92,0,0,0,73.84,240.8Z" fill="#ff6b35"/>
    <path id="Caminho_13" data-name="Caminho 13" d="M45.071,279.407H44.2v-.876h-.171v.876h-.874v.171h.874v.876H44.2v-.876h.874Z" fill="#f2f2f2"/>
    <path id="Caminho_14" data-name="Caminho 14" d="M325.568,208.272h-.874V207.4h-.17v.875h-.874v.171h.874v.876h.17v-.876h.874Z" fill="#f2f2f2"/>
    <path id="Caminho_15" data-name="Caminho 15" d="M397.97,193.853H397.1v-.876h-.171v.876h-.873v.171h.873v.876h.171v-.876h.874Z" fill="#f2f2f2"/>
    <path id="Caminho_16" data-name="Caminho 16" d="M242.138,232.3h-.873v-.875h-.171v.875h-.874v.171h.874v.876h.171v-.876h.873Z" fill="#f2f2f2"/>
    <path id="Caminho_17" data-name="Caminho 17" d="M376.873,237.111H376v-.876h-.171v.876h-.873v.171h.873v.876H376v-.876h.874Z" fill="#f2f2f2"/>
    <path id="Caminho_18" data-name="Caminho 18" d="M214.328,257.778h-.873V256.9h-.171v.875h-.874v.171h.874v.876h.171v-.876h.873Z" fill="#f2f2f2"/>
    <path id="Caminho_19" data-name="Caminho 19" d="M275.7,258.74h-.874v-.876h-.17v.876h-.874v.171h.874v.875h.17v-.875h.874Z" fill="#f2f2f2"/>
    <path id="Caminho_20" data-name="Caminho 20" d="M46.03,177.031h-.874v-.876h-.171v.876h-.874v.171h.874v.875h.171V177.2h.874Z" fill="#f2f2f2"/>
    <path id="Caminho_21" data-name="Caminho 21" d="M325.986,110.879h-1.378v27.907h1.378Z" fill="#e6e6e6"/>
    <path id="Caminho_22" data-name="Caminho 22" d="M293.322,185.069l-12.68,29.289,2.481,4.145-.827,1.381,5.789,3.04v-1.658l2.205-.553,9.372-17.131Z" fill="#e6e6e6"/>
    <path id="Caminho_23" data-name="Caminho 23" d="M283.4,219.608s-9.372,14.645,1.1,16.855,1.93-15.474,1.93-15.474Z" fill="#e6e6e6"/>
    <path id="Caminho_24" data-name="Caminho 24" d="M296.9,212.976,293.6,223.753l-1.378,13.815-2.481,4.974,2.757,22.381,4.41,4.421,1.93,22.105V301.4l5.237,9.118-6.744,9.6a3.057,3.057,0,0,0,2.392,4.821,12.585,12.585,0,0,0,6.006-1.707c7.994-4.144,7.718-8.013,7.718-8.013s4.962,0,5.237-3.868-3.032-31.5-3.032-31.5l-3.032-11.881V235.634h1.1l.551,27.631,2.481,10.224.275,4.421,3.584,44.21s15.987,4.421,16.814.829-6.064-5.8-6.064-5.8l4.135-8.014V293.66l-1.378-3.316-2.481-22.381,4.134-4.421,2.206-2.763v-22.1l-2.757-8.566-.827-7.184-4.41-11.053S309.861,205.24,296.9,212.976Z" fill="#fff"/>
    <path id="Caminho_25" data-name="Caminho 25" d="M332.739,150.53A20.946,20.946,0,1,1,294.976,138l0-.005a20.947,20.947,0,0,1,37.758,12.531Z" fill="#1a659e"/>
    <g id="Grupo_7" data-name="Grupo 7" opacity="0.1">
      <path id="Caminho_26" data-name="Caminho 26" d="M329.762,141.823l-1.709,9.812c-12.842-33.417-33.27-12.89-33.623-12.531a20.928,20.928,0,0,1,35.332,2.719Z" opacity="0.1"/>
    </g>
    <path id="Caminho_27" data-name="Caminho 27" d="M330.314,140.718l-1.709,9.812c-12.843-33.418-33.271-12.89-33.624-12.531a20.928,20.928,0,0,1,35.333,2.719Z" fill="#fff"/>
    <path id="Caminho_28" data-name="Caminho 28" d="M327.442,136.575l2.872,9.993s-5.962,17.91-33.6,18.535l-.906,2.558-3.033.829-1.378,5.8,3.859,36.749s-1.654,3.592,1.1,3.316c0,0,18.193-6.079,33.9-.553,0,0,3.308,1.382,2.481-1.658,0,0,11.026-6.907,10.2-14.091s.827-40.619.827-40.619,1.654-9.671-3.308-11.881C340.457,145.556,333.17,135.332,327.442,136.575Z" fill="#fff"/>
    <path id="Caminho_29" data-name="Caminho 29" d="M321.4,206.4s-17.27,1.738-12.49,11.339,13.294-8.1,13.294-8.1Z" fill="#e6e6e6"/>
    <path id="Caminho_30" data-name="Caminho 30" d="M330.258,163.516a11.754,11.754,0,0,0-1.929,9.395c1.1,5.8,5.237,18.789,5.237,18.789l-14.609,13.54,4.41,6.079L343.214,201.1l4.41-2.763a114.836,114.836,0,0,0-8.1-32.511l-.722-1.752S333.566,161.858,330.258,163.516Z" fill="#e6e6e6"/>
    <path id="Caminho_31" data-name="Caminho 31" d="M328.88,153.707a5.112,5.112,0,1,0-5.1-5.112A5.105,5.105,0,0,0,328.88,153.707Z" fill="#e6e6e6"/>
    <path id="Caminho_32" data-name="Caminho 32" d="M325.3,114.471a3.731,3.731,0,1,0-3.721-3.731A3.726,3.726,0,0,0,325.3,114.471Z" fill="#e6e6e6"/>
    <path id="Caminho_33" data-name="Caminho 33" d="M230.631,169.34h-.874v-.875h-.171v.875h-.873v.171h.873v.876h.171v-.876h.874Z" fill="#f2f2f2"/>
    <path id="Caminho_34" data-name="Caminho 34" d="M309.266,142.424h-.874v-.875h-.171v.875h-.873v.172h.873v.875h.171V142.6h.874Z" fill="#f2f2f2"/>
    <path id="Caminho_35" data-name="Caminho 35" d="M300.635,150.6h-.874v-.875h-.17v.875h-.874v.171h.874v.876h.17v-.876h.874Z" fill="#f2f2f2"/>
    <path id="Caminho_36" data-name="Caminho 36" d="M266.592,130.254a1.923,1.923,0,1,0-1.918-1.923A1.921,1.921,0,0,0,266.592,130.254Z" fill="#f2f2f2"/>
    <path id="Caminho_37" data-name="Caminho 37" d="M172.114,141.883C172.114,276,155.289,276,134.542,276c-10.727,0-20.4,0-27.247-18.526a115.892,115.892,0,0,1-5.163-21.028c-3.281-19.867-5.162-49.721-5.162-94.566a258.342,258.342,0,0,1,5.162-49.939c1.5-7.6,3.258-14.939,5.163-21.937,2.329-8.567,4.881-16.623,7.457-23.995,1.726-4.957,3.47-9.608,5.162-13.9A299.188,299.188,0,0,1,134.542,0S172.114,67.81,172.114,141.883Z" fill="#f2f2f2"/>
    <g id="Grupo_8" data-name="Grupo 8" opacity="0.1">
      <path id="Caminho_38" data-name="Caminho 38" d="M119.914,32.108V265.94h-5.162V46.012C116.478,41.055,118.222,36.4,119.914,32.108Z" opacity="0.1"/>
    </g>
    <path id="Caminho_39" data-name="Caminho 39" d="M133.394,113.276a20.7,20.7,0,1,0-20.65-20.7A20.676,20.676,0,0,0,133.394,113.276Z" fill="#3f3d56"/>
    <path id="Caminho_40" data-name="Caminho 40" d="M178.71,263.352c-4.591-11.329-10.487-13.284-14.34-13.114V248.4H104.14v1.836c-3.854-.17-9.749,1.785-14.341,13.114-7.457,18.4,4.589,50.026,4.589,50.026s-6.438-44.107,14.94-44.4a25.346,25.346,0,0,0,6.707,6.1v11.863h34.522V276.16a25.3,25.3,0,0,0,8.625-7.179c21.377.29,14.939,44.4,14.939,44.4S186.167,281.753,178.71,263.352Z" fill="#1a659e"/>
    <path id="Caminho_41" data-name="Caminho 41" d="M133.394,108.676a16.1,16.1,0,1,0-16.061-16.1A16.081,16.081,0,0,0,133.394,108.676Z" fill="#1a659e"/>
    <path id="Caminho_42" data-name="Caminho 42" d="M405.646,96.59h-.959A39.406,39.406,0,0,0,444,135.781v-.961a38.443,38.443,0,0,1-38.354-38.23Z" fill="#1a659e"/>
    <path id="Caminho_43" data-name="Caminho 43" d="M387.9,96.59h-.959A57.184,57.184,0,0,0,444,153.565V152.6A56.226,56.226,0,0,1,387.9,96.59Z" fill="#1a659e"/>
    <path id="Caminho_44" data-name="Caminho 44" d="M369.68,96.59h-.959A75.454,75.454,0,0,0,444,171.829v-.961A74.492,74.492,0,0,1,369.68,96.59Z" fill="#1a659e"/>
  </g>
</svg>
